# xmcd
#
# Track frame offsets:
#	150
#	21904
#	65019
#	88241
#	122730
#	156737
#	188630
#	206133
#	245146
#
# Disc length: 3541 seconds
#
# Revision: 1
# Processed by: cddbd v1.5.2PL0 Copyright (c) Steve Scherf et al.
# Submitted via: audiograbber 1.83.01
#
DISCID=8a0dd309
DTITLE=Grateful Dead - 72-11-14 Oklahoma City Music Hall, Oklahoma City OK
DYEAR=1900
DGENRE=
TTITLE0=Promised Land
TTITLE1=Sugaree
TTITLE2=El Paso
TTITLE3=Loser
TTITLE4=Black Throated Wind
TTITLE5=Bertha
TTITLE6=Mexicali Blues
TTITLE7=Tennessee Jed
TTITLE8=Big River
EXTD=
EXTT0=
EXTT1=
EXTT2=
EXTT3=
EXTT4=
EXTT5=
EXTT6=
EXTT7=
EXTT8=
PLAYORDER=
